<?xml version="1.0" standalone="no"?>
<!DOCTYPE svg PUBLIC "-//W3C//DTD SVG 20010904//EN"
 "http://www.w3.org/TR/2001/REC-SVG-20010904/DTD/svg10.dtd">
<svg version="1.0" xmlns="http://www.w3.org/2000/svg"
 width="623.000000pt" height="710.000000pt" viewBox="0 0 623.000000 710.000000"
 preserveAspectRatio="xMidYMid meet">

<g transform="translate(0.000000,710.000000) scale(0.100000,-0.100000)"
fill="#0C4160" stroke="none">
<path d="M3089 7066 c-11 -11 -293 -88 -456 -125 -392 -88 -856 -158 -1338
-201 -66 -6 -281 -15 -479 -20 -314 -8 -361 -12 -377 -26 -18 -16 -19 -49 -19
-786 0 -422 2 -768 5 -768 3 0 95 59 205 131 l200 131 0 454 0 454 33 0 c69 0
500 31 712 50 444 42 913 122 1330 227 99 25 187 45 195 45 8 0 61 -12 116
-26 582 -148 1399 -268 1982 -293 l152 -6 0 -769 0 -768 210 0 210 0 2 928 c1
510 1 938 0 952 -1 14 -11 33 -23 43 -19 15 -45 17 -218 17 -688 0 -1695 142
-2316 325 -66 19 -120 35 -121 35 0 0 -3 -2 -5 -4z"/>
<path d="M3354 5554 c-53 -19 -118 -75 -148 -127 -13 -23 -70 -202 -126 -397
-56 -195 -104 -357 -106 -359 -2 -2 -171 71 -376 162 -205 91 -452 199 -548
240 -263 113 -407 176 -595 263 -167 77 -172 78 -250 78 -61 1 -89 -4 -116
-19 -21 -11 -220 -195 -444 -410 -224 -214 -445 -426 -492 -470 -131 -123
-125 -98 -121 -484 4 -311 5 -329 27 -390 53 -143 172 -277 303 -340 169 -80
408 -63 568 40 120 77 198 174 248 308 23 59 26 85 30 244 l4 177 -361 0 -361
0 -1 55 c-1 30 -2 65 -2 77 -1 23 46 69 471 460 144 132 165 148 180 137 18
-15 217 -196 322 -295 233 -219 449 -421 680 -634 145 -135 354 -329 464 -433
l200 -187 1561 2 1560 3 3 609 c2 556 1 611 -14 628 -16 17 -41 18 -389 18
-455 0 -415 16 -415 -163 0 -177 -12 -167 211 -167 l179 0 0 -255 0 -255 -305
0 -304 0 -3 838 c-3 831 -3 837 -24 883 -29 63 -83 120 -141 149 l-48 25 -640
2 c-541 1 -646 -1 -681 -13z m1084 -741 l2 -343 -531 0 c-500 0 -530 1 -525
18 3 9 10 37 16 62 6 25 27 95 45 155 19 61 57 188 86 283 l53 172 425 -2 426
-3 3 -342z m-2253 -261 c99 -44 245 -110 325 -147 80 -36 187 -85 239 -107 51
-23 95 -48 98 -55 4 -10 -64 -260 -92 -341 -3 -9 -25 4 -63 40 -278 253 -770
708 -781 722 -12 14 -4 13 40 -7 30 -13 135 -61 234 -105z m2255 -692 l0 -190
-644 0 -644 0 13 59 c8 32 30 111 50 175 19 65 35 124 35 132 0 12 83 14 595
14 l595 0 0 -190z"/>
<path d="M2062 3100 c-41 -11 -98 -34 -128 -51 -128 -73 -249 -220 -295 -360
-34 -103 -35 -280 -2 -384 55 -176 209 -330 393 -397 l65 -23 1800 0 c1718 0
1803 1 1859 18 166 51 304 168 376 318 163 341 20 721 -325 861 l-80 33 -1795
2 c-1745 2 -1797 2 -1868 -17z m3570 -433 c62 -36 98 -96 98 -163 -1 -91 -45
-154 -129 -182 -46 -16 -3338 -17 -3394 -1 -21 6 -55 27 -76 48 -108 108 -57
274 99 322 14 4 774 7 1690 6 l1665 -2 47 -28z"/>
<path d="M849 2769 c-63 -78 -136 -168 -162 -200 l-48 -58 34 -103 c203 -605
699 -1176 1553 -1788 239 -171 848 -570 870 -570 15 0 511 308 674 419 167
113 425 298 530 380 300 233 605 529 764 744 l28 37 -270 0 -270 0 -103 -98
c-245 -233 -564 -482 -914 -714 -228 -151 -416 -268 -432 -268 -25 0 -438 270
-663 434 -346 252 -529 404 -735 611 -306 307 -484 561 -599 857 -53 133 -112
333 -122 407 -4 28 -10 51 -13 51 -4 0 -59 -64 -122 -141z"/>
</g>
</svg>
