<?xml version="1.0" encoding="UTF-8"?>
<!DOCTYPE svg PUBLIC "-//W3C//DTD SVG 1.1//EN" "http://www.w3.org/Graphics/SVG/1.1/DTD/svg11.dtd">
<!-- Creator: CorelDRAW 2020 (64-Bit) -->
<svg xmlns="http://www.w3.org/2000/svg" xml:space="preserve" width="210mm" height="297mm" version="1.1" style="shape-rendering:geometricPrecision; text-rendering:geometricPrecision; image-rendering:optimizeQuality; fill-rule:evenodd; clip-rule:evenodd"
viewBox="0 0 21000 29700"
 xmlns:xlink="http://www.w3.org/1999/xlink"
 xmlns:xodm="http://www.corel.com/coreldraw/odm/2003">
 <defs>
  <style type="text/css">
   <![CDATA[
    .fil4 {fill:#2F560E}
    .fil5 {fill:#30570F}
    .fil3 {fill:#468C20}
    .fil2 {fill:#6EA022}
    .fil1 {fill:#A6C53F}
    .fil0 {fill:#CEDE60}
   ]]>
  </style>
 </defs>
 <g id="Capa_x0020_1">
  <metadata id="CorelCorpID_0Corel-Layer"/>
  <g id="_2729617434096">
   <path class="fil0" d="M11018.12 5496.08c-22.28,-12.74 2380.08,2069.44 4207.78,5049.37 -13.44,4.4 -1917.16,627.44 -3230.75,568.62 -1318.26,-59.02 -2029.39,-787.01 -3403.85,-806.69 -1349.29,-19.32 -2556.55,2109.49 -2600.33,2187.47 1816.73,-3876.42 5027.46,-7014.6 5027.15,-6998.77zm-4691.87 15270.87c25.35,-27.49 52.48,-56.64 81.31,-87.2 -28.78,30.51 -56.01,59.76 -81.31,87.2zm446.1 -454.51c27.18,-25.95 55.01,-52.13 83.32,-78.47 -28.31,26.34 -56.14,52.55 -83.32,78.47zm285.82 -260.95c11.9,-10.37 23.93,-20.7 35.99,-31.05l-35.99 31.05zm152.86 -129.47c30.53,-25.14 61.41,-50.04 92.54,-74.75 -31.13,24.69 -62.04,49.61 -92.54,74.75zm105.2 -84.85c15.02,-11.84 30.15,-23.64 45.29,-35.35 -15.14,11.71 -30.27,23.48 -45.29,35.35zm52.21 -40.75c15.26,-11.77 30.56,-23.38 45.92,-34.99 -15.36,11.61 -30.66,23.22 -45.92,34.99zm54.23 -41.34c16.99,-12.79 34.08,-25.47 51.19,-38.05 -17.11,12.6 -34.18,25.29 -51.19,38.05zm53.89 -40.07c15.6,-11.45 31.24,-22.72 46.94,-33.97 -15.7,11.25 -31.37,22.54 -46.94,33.97zm55.33 -40.02c15.62,-11.14 31.29,-22.15 46.97,-33.08 -15.68,10.93 -31.35,21.94 -46.97,33.08zm54.99 -38.72c16.09,-11.16 32.26,-22.14 48.43,-33.07 -16.17,10.93 -32.34,21.91 -48.43,33.07zm55.43 -37.87c11.56,-7.78 23.17,-15.36 34.76,-22.99 -11.59,7.63 -23.2,15.21 -34.76,22.99zm57.17 -37.77c10.82,-7.02 21.65,-13.86 32.47,-20.76 -10.85,6.9 -21.67,13.74 -32.47,20.76zm55.12 -35.2c13.57,-8.49 27.15,-16.82 40.78,-25.13 -13.6,8.28 -27.21,16.61 -40.78,25.13zm55.96 -34.46c11.32,-6.84 22.69,-13.48 34.02,-20.13 -11.33,6.65 -22.7,13.29 -34.02,20.13zm56.98 -33.68c12.03,-6.95 24.08,-13.69 36.11,-20.45 -12.05,6.76 -24.08,13.5 -36.11,20.45zm55.64 -31.51c11.48,-6.34 22.96,-12.42 34.41,-18.58 -11.45,6.16 -22.93,12.24 -34.41,18.58zm56.95 -30.74c9.94,-5.24 19.87,-10.22 29.83,-15.31 -9.96,5.09 -19.89,10.07 -29.83,15.31zm56.28 -28.86c9.85,-4.9 19.68,-9.59 29.51,-14.34 -9.83,4.75 -19.66,9.44 -29.51,14.34zm112.23 -52.76c12.21,-5.4 24.45,-10.46 36.64,-15.57 -12.19,5.14 -24.43,10.2 -36.64,15.57zm56.3 -23.93c13.13,-5.35 26.18,-10.41 39.29,-15.44 -13.08,5.03 -26.16,10.09 -39.29,15.44zm55.72 -21.89c18.27,-6.86 36.54,-13.44 54.75,-19.68 -18.21,6.24 -36.48,12.82 -54.75,19.68zm55.36 -19.89c16.67,-5.71 33.34,-11.06 49.93,-16.2 -16.62,5.14 -33.26,10.49 -49.93,16.2zm55.64 -18.06c10.27,-3.14 20.52,-5.92 30.74,-8.86 -10.24,2.94 -20.47,5.72 -30.74,8.86zm5601.48 943.46l47.42 -10.35c-15.81,3.48 -31.64,6.99 -47.42,10.35zm84.4 -18.48c14.78,-3.35 29.59,-6.87 44.4,-10.33 -14.81,3.46 -29.62,6.98 -44.4,10.33zm84.19 -19.63c11.29,-2.7 22.61,-5.58 33.94,-8.36 -11.33,2.78 -22.62,5.66 -33.94,8.36zm-8749.21 -1184.51c15.28,-27.97 31.64,-57.43 48.88,-88.12 -17.22,30.67 -33.6,60.18 -48.88,88.12zm116.43 -206.33c10.27,-17.69 20.78,-35.72 31.58,-53.99 -10.8,18.29 -21.31,36.3 -31.58,53.99zm67.91 -115.03c22.46,-37.4 45.99,-75.93 70.4,-115.3 -24.41,39.37 -47.94,77.87 -70.4,115.3zm75.79 -124.06c11.12,-17.87 22.49,-36.03 34.03,-54.25 -11.54,18.24 -22.91,36.38 -34.03,54.25zm39.82 -63.5c11.64,-18.38 23.51,-36.96 35.54,-55.65 -12.03,18.69 -23.9,37.27 -35.54,55.65zm41.78 -65.37c13.57,-21.02 27.39,-42.3 41.43,-63.72 -14.04,21.42 -27.86,42.67 -41.43,63.72zm42.38 -65.11c13.84,-21.04 27.86,-42.27 42.17,-63.61 -14.31,21.34 -28.33,42.57 -42.17,63.61zm45.26 -68.19c13.61,-20.29 27.45,-40.73 41.47,-61.28 -14.02,20.52 -27.86,40.99 -41.47,61.28zm46.74 -69.04c13.83,-20.24 27.96,-40.63 42.22,-61.07 -14.26,20.44 -28.36,40.83 -42.22,61.07zm47.99 -69.38c14.44,-20.65 29.12,-41.44 43.95,-62.25 -14.83,20.81 -29.51,41.57 -43.95,62.25zm49.4 -69.93c15.05,-21.1 30.33,-42.22 45.79,-63.43 -15.46,21.21 -30.74,42.33 -45.79,63.43zm50.85 -70.4c16.77,-22.96 33.78,-45.97 51.03,-69.04 -17.25,23.07 -34.26,46.08 -51.03,69.04zm51.82 -70.08c16.48,-22.05 33.21,-44.12 50.11,-66.21 -16.9,22.09 -33.63,44.19 -50.11,66.21zm54.41 -71.87c16.41,-21.39 33.02,-42.8 49.8,-64.19 -16.78,21.39 -33.39,42.8 -49.8,64.19zm55.41 -71.4c17.43,-22.17 35.09,-44.32 52.89,-66.44 -17.82,22.12 -35.49,44.27 -52.89,66.44zm56.43 -70.87c16.22,-20.1 32.68,-40.18 49.25,-60.23 -16.54,20.05 -33.03,40.1 -49.25,60.23zm58.97 -72.08c16.7,-20.13 33.6,-40.18 50.61,-60.2 -17.01,20.02 -33.91,40.07 -50.61,60.2zm59.16 -70.32c17.01,-19.95 34.23,-39.81 51.55,-59.6 -17.32,19.79 -34.54,39.65 -51.55,59.6zm60.83 -70.27c17.74,-20.21 35.72,-40.31 53.81,-60.33 -18.09,20.02 -36.04,40.12 -53.81,60.33zm61.93 -69.4c18.33,-20.21 36.88,-40.31 55.54,-60.31 -18.66,20 -37.21,40.1 -55.54,60.31zm63.41 -68.83c19.84,-21.2 39.89,-42.23 60.1,-63.17 -20.19,20.94 -40.26,41.97 -60.1,63.17zm64.21 -67.47c19.48,-20.12 39.19,-40.07 59,-59.91 -19.81,19.84 -39.5,39.76 -59,59.91zm66.29 -67.3c18,-17.96 36.24,-35.73 54.54,-53.39 -18.3,17.66 -36.54,35.43 -54.54,53.39zm67.8 -66.34c19.4,-18.58 38.98,-36.96 58.63,-55.22 -19.65,18.26 -39.23,36.64 -58.63,55.22zm67.75 -63.82c20.87,-19.27 41.91,-38.24 63.09,-57.09 -21.18,18.85 -42.25,37.82 -63.09,57.09zm69.36 -62.72c20.78,-18.43 41.78,-36.59 62.87,-54.57 -21.07,17.98 -42.06,36.14 -62.87,54.57zm70.89 -61.49c19.66,-16.67 39.5,-33.03 59.42,-49.3 -19.92,16.27 -39.76,32.63 -59.42,49.3zm72.34 -59.97c18.72,-15.15 37.62,-29.96 56.54,-44.71 -18.92,14.75 -37.82,29.56 -56.54,44.71zm73.16 -57.82c19.05,-14.7 38.34,-29.04 57.63,-43.3 -19.29,14.26 -38.58,28.6 -57.63,43.3zm74.01 -55.56c18.14,-13.24 36.44,-26.11 54.76,-38.98 -18.32,12.84 -36.62,25.71 -54.76,38.98zm75.57 -53.71c18.5,-12.79 37.19,-25.16 55.88,-37.53 -18.69,12.37 -37.38,24.74 -55.88,37.53zm75.9 -50.95c18.85,-12.24 37.82,-24.04 56.85,-35.86 -19,11.8 -38,23.59 -56.85,35.86zm77.37 -48.73c17.83,-10.85 35.78,-21.25 53.76,-31.68 -17.95,10.43 -35.93,20.83 -53.76,31.68zm78.5 -46.2c19.56,-11.09 39.27,-21.71 58.98,-32.27 -19.71,10.56 -39.45,21.18 -58.98,32.27zm78.74 -43.07c20.65,-10.87 41.49,-21.2 62.33,-31.45 -20.87,10.27 -41.68,20.6 -62.33,31.45zm80.25 -40.47c18.11,-8.75 36.41,-16.95 54.65,-25.21 -18.24,8.28 -36.54,16.49 -54.65,25.21zm81.7 -37.66c18.66,-8.18 37.45,-15.8 56.25,-23.48 -18.8,7.68 -37.59,15.3 -56.25,23.48zm81.72 -34.07c18.32,-7.24 36.8,-13.89 55.28,-20.66 -18.48,6.77 -36.96,13.42 -55.28,20.66zm83.22 -31.06c16.25,-5.69 32.63,-10.8 48.96,-16.07 -16.33,5.3 -32.71,10.38 -48.96,16.07zm84.08 -27.55c18.69,-5.69 37.48,-10.74 56.3,-15.91 -18.82,5.17 -37.61,10.22 -56.3,15.91zm84.24 -23.77c19.47,-5.06 39.11,-9.41 58.74,-13.87 -19.63,4.46 -39.27,8.81 -58.74,13.87zm85.73 -20.21c17.01,-3.62 34.18,-6.53 51.3,-9.7 -17.12,3.17 -34.29,6.08 -51.3,9.7zm86.58 -16.33c16.53,-2.72 33.18,-4.77 49.79,-7.05 -16.61,2.28 -33.26,4.33 -49.79,7.05zm87.01 -12.29c19.03,-2.23 38.19,-3.7 57.35,-5.32 -19.16,1.62 -38.32,3.09 -57.35,5.32zm-3254.47 179.33c17.85,-31.82 36.85,-65.42 56.95,-100.67l-56.95 100.67zm98.15 -172.57c56.01,-97.05 119.49,-204.75 189.48,-320.02 -69.96,115.19 -133.49,223.02 -189.48,320.02zm248.61 -416.74c30.35,-49.22 61.75,-99.57 94.17,-150.89l-94.17 150.89zm97.58 -156.29c15.77,-24.95 31.84,-50.19 48.06,-75.56 -16.22,25.37 -32.29,50.61 -48.06,75.56zm50.97 -80.1c15.26,-23.8 30.77,-47.83 46.42,-71.97 -15.65,24.11 -31.16,48.17 -46.42,71.97zm53 -82.16c13,-20.06 26.29,-40.26 39.58,-60.5 -13.29,20.24 -26.58,40.47 -39.58,60.5zm55.07 -84.14c33.18,-50.32 67.25,-101.27 101.98,-152.54 -34.73,51.27 -68.8,102.22 -101.98,152.54zm112.15 -167.61c37.43,-55.07 75.72,-110.58 114.8,-166.31 -39.08,55.73 -77.4,111.24 -114.8,166.31zm117.5 -170.18c19.34,-27.55 38.92,-55.15 58.63,-82.8 -19.71,27.62 -39.29,55.25 -58.63,82.8zm60.99 -86.1c17.85,-24.98 35.88,-50.04 54.05,-75.04 -18.17,25.03 -36.2,50.06 -54.05,75.04zm62.72 -87.05c15.83,-21.75 31.85,-43.51 47.89,-65.23 -16.04,21.72 -32.06,43.5 -47.89,65.23zm64.01 -87.15c59.94,-80.83 121.45,-161.45 184.2,-241.26 -62.75,79.81 -124.26,160.43 -184.2,241.26zm196.83 -257.41c42.41,-53.67 85.4,-106.98 128.91,-159.69 -43.51,52.71 -86.52,106.02 -128.91,159.69zm135.69 -167.98c22.47,-27.12 45.03,-54.07 67.76,-80.88 -22.7,26.79 -45.29,53.76 -67.76,80.88zm69.12 -82.51c23.25,-27.41 46.63,-54.67 70.16,-81.67 -23.53,27 -46.91,54.26 -70.16,81.67zm70.24 -81.74c19.82,-22.75 39.76,-45.24 59.79,-67.65 -20.03,22.41 -39.97,44.9 -59.79,67.65zm71.9 -81.33c18.45,-20.58 37.01,-40.84 55.59,-61.1 -18.58,20.26 -37.14,40.52 -55.59,61.1zm71.92 -79.03c22.2,-24.03 44.53,-47.75 66.89,-71.29 -22.36,23.54 -44.69,47.26 -66.89,71.29zm71.94 -76.66c20.71,-21.68 41.47,-43.04 62.31,-64.3 -20.84,21.24 -41.6,42.62 -62.31,64.3zm73.52 -75.85c17.85,-18.09 35.81,-35.81 53.76,-53.52 -17.95,17.71 -35.91,35.43 -53.76,53.52zm74.23 -73.92c21.83,-21.36 43.8,-42.35 65.79,-63.11 -21.99,20.76 -43.96,41.75 -65.79,63.11zm73.57 -70.55c21.49,-20.24 43.09,-40.05 64.71,-59.68 -21.62,19.63 -43.22,39.44 -64.71,59.68zm75.02 -69.17c19.13,-17.27 38.34,-34.07 57.55,-50.85 -19.21,16.78 -38.42,33.58 -57.55,50.85zm75.56 -66.71c18.37,-15.88 36.82,-31.27 55.28,-46.65 -18.46,15.38 -36.91,30.8 -55.28,46.65zm75.56 -63.74c22.78,-18.77 45.66,-37.01 68.54,-54.99 -22.88,17.98 -45.76,36.22 -68.54,54.99zm75.54 -60.57c19.95,-15.57 39.94,-30.59 59.94,-45.55 -20,14.96 -39.99,29.98 -59.94,45.55zm76.69 -58.27c18.32,-13.49 36.67,-26.44 55.04,-39.39 -18.37,12.95 -36.72,25.9 -55.04,39.39zm76.56 -54.75c15.7,-10.9 31.48,-21.2 47.2,-31.66 -15.72,10.46 -31.5,20.76 -47.2,31.66zm77.01 -51.61c17.19,-11.11 34.44,-21.57 51.63,-32.16 -17.22,10.57 -34.44,21.02 -51.63,32.16zm76.5 -47.65c16.38,-9.82 32.76,-18.95 49.17,-28.25 -16.38,9.3 -32.79,18.43 -49.17,28.25zm77.19 -44.34c17.67,-9.73 35.33,-18.69 53,-27.79 -17.69,9.1 -35.36,18.09 -53,27.79zm76.74 -40.24c15.83,-7.86 31.61,-15.01 47.44,-22.38 -15.8,7.37 -31.61,14.52 -47.44,22.38zm77.27 -36.45c14.73,-6.56 29.46,-12.4 44.19,-18.48 -14.73,6.08 -29.46,11.92 -44.19,18.48zm76.82 -32.11c17.64,-6.87 35.26,-12.98 52.87,-19.13 -17.61,6.15 -35.23,12.26 -52.87,19.13zm76.75 -27.76c15.01,-5 30.01,-9.22 45.02,-13.71 -15.01,4.49 -30.01,8.71 -45.02,13.71z"/>
   <path class="fil1" d="M8355.17 13101.32c1610.56,-19.68 2560.86,961.96 4247.97,981.62 1687.12,19.66 3874.95,-1063.26 3874.95,-1063.26 -344.06,-871.12 -778.7,-1702.84 -1251.87,-2474.34 0,0 -1912.81,627.76 -3231.07,568.73 -1318.26,-59.02 -2029.39,-787.01 -3403.85,-806.69 -1374.46,-19.68 -2601.69,2189.88 -2601.69,2189.88 -290.77,620.68 -545.77,1260.26 -746.12,1908.82 -235.1,761.12 -364.53,1576.51 -376.17,2393.32 0,0 1877.3,-3678.4 3487.85,-3698.08z"/>
   <path class="fil2" d="M12603.14 14082.94c-1687.11,-19.66 -2637.41,-1001.3 -4247.97,-981.62 -1610.55,19.68 -3487.85,3698.08 -3487.85,3698.08 -12.03,844.83 101.93,1691.18 355.33,2480.6l0 0.03 7380.49 -5197.09zm-7380.49 5197.06l-0.02 0.03 0.02 -0.03zm1.02 -2.2l0.03 0 3.09 -6.58 0.03 0 5.14 -10.8 0.02 0 7.19 -14.88 0.02 0 9.2 -18.8 11.19 -22.59 0.03 0 13.13 -26.24 0.03 0 15.09 -29.75 17.04 -33.12 18.92 -36.33 0.03 0 20.78 -39.42 0.03 0 22.65 -42.33 0.02 0 24.48 -45.16 0.03 0 26.31 -47.78 28.1 -50.33 0.03 0 29.88 -52.68c10.24,-17.95 20.81,-36.25 31.63,-54.91l33.37 -56.98c11.4,-19.32 23.09,-39 35.07,-58.94l0.02 0c11.98,-19.98 24.22,-40.21 36.75,-60.73 12.53,-20.55 25.34,-41.36 38.42,-62.41 13.08,-21.07 26.45,-42.38 40.08,-63.93 13.63,-21.51 27.52,-43.32 41.67,-65.29l0.03 0c14.18,-21.96 28.57,-44.16 43.27,-66.52 14.71,-22.38 29.64,-44.92 44.87,-67.62 15.2,-22.7 30.69,-45.58 46.42,-68.56 15.73,-22.99 31.72,-46.11 47.94,-69.36l0.03 0c16.25,-23.24 32.71,-46.62 49.45,-70.06 16.73,-23.43 33.74,-46.96 50.96,-70.55 17.22,-23.59 34.72,-47.26 52.44,-70.95 17.72,-23.7 35.67,-47.42 53.86,-71.16 18.19,-23.78 36.65,-47.52 55.31,-71.29 18.68,-23.78 37.58,-47.52 56.72,-71.24 19.13,-23.72 38.47,-47.42 58.08,-71.06 19.58,-23.64 39.42,-47.2 59.47,-70.71 20.05,-23.49 40.28,-46.92 60.78,-70.25 20.5,-23.32 41.2,-46.55 62.12,-69.64 20.91,-23.09 42.06,-46.05 63.43,-68.88 21.36,-22.83 42.9,-45.5 64.68,-67.99 21.78,-22.48 43.72,-44.82 65.92,-66.94 22.2,-22.12 44.58,-44.08 67.18,-65.78 22.59,-21.73 45.39,-43.17 68.38,-64.43 22.98,-21.25 46.21,-42.25 69.59,-62.98 23.38,-20.73 46.96,-41.2 70.74,-61.38 23.77,-20.19 47.75,-40.05 71.89,-59.63 24.17,-19.58 48.46,-38.82 73,-57.74 24.53,-18.9 49.22,-37.48 74.12,-55.7 24.87,-18.22 49.95,-36.06 75.19,-53.52 25.25,-17.48 50.67,-34.55 76.25,-51.22 25.58,-16.66 51.35,-32.91 77.29,-48.75 25.95,-15.83 52.06,-31.21 78.32,-46.15 26.29,-14.94 52.71,-29.41 79.31,-43.41 26.6,-13.99 53.36,-27.52 80.28,-40.52 26.92,-13.02 53.99,-25.52 81.23,-37.5 27.23,-11.98 54.62,-23.41 82.17,-34.31 27.52,-10.88 55.22,-21.26 83.06,-31.03 27.83,-9.78 55.82,-18.98 83.95,-27.58 28.12,-8.59 56.4,-16.59 84.81,-23.95 28.41,-7.37 56.98,-14.13 85.68,-20.24 28.7,-6.1 57.53,-11.56 86.5,-16.35 28.96,-4.8 58.05,-8.91 87.28,-12.35 29.22,-3.43 58.57,-6.16 88.06,-8.18 29.49,-2.01 59.1,-3.3 88.83,-3.85 29.72,-0.55 59.57,-0.37 89.56,0.58 483.23,15.31 922.22,96.61 1332.41,209.76l1149.39 -905.87 2343.65 1856.45c1498.33,-120.98 3797.21,-1569.9 3797.21,-1569.9 -57.98,-554.63 -160.8,-1093.88 -299.42,-1598.21 -115.72,-421.04 -256.42,-835.6 -416.77,-1241.62 0,0 -2187.83,1082.92 -3874.95,1063.26l-7379.47 5194.86zm5199.58 -2636.37c748.35,259.17 1414.01,581.82 2106.74,723.59l-1476.57 -1217.17 -630.17 493.58z"/>
   <path class="fil3" d="M17194.28 15859.51c0,0 -2298.88,1448.92 -3797.21,1569.9l974.07 771.58 295.65 811.64 -1051.21 -860.92 0 2084.88c1547.03,-219.01 3382.91,-1265.87 3382.91,-1265.87 256.86,-1007.2 303.02,-2085.51 195.79,-3111.21zm-4664.29 1505.51c-692.73,-141.77 -1358.39,-464.42 -2106.74,-723.59l-1341.01 1050.37 0 1503.91c275.29,43.04 571.07,132.33 883.52,242.02l39.26 13.87 0 -273.48 1048.4 0 0 661.65c44.61,15.94 89.43,31.77 134.43,47.39l39.26 13.55 0 -722.59 1048.41 0 0 1013.44c239.77,46.34 482.94,76.67 728.43,83.85 13,0.36 26.18,0.42 39.26,0.63l0 -2487.97 -513.22 -423.05zm-2625.96 -886.19c-410.19,-113.15 -849.18,-194.45 -1332.41,-209.76 -1918.34,-60.81 -3348.97,3010.96 -3348.99,3010.96 201.39,627.47 490.86,1218.97 875.1,1745.14 0,0 1382,-1665.65 2471.45,-1841.99l3.88 -1047.9 -1125.09 901.96 270.98 -836.25 2185.08 -1722.16zm1323.08 1485.4l1048.41 0 0 1048.4 -1048.41 0 0 -1048.4zm-1222.09 0l1048.4 0 0 1048.4 -1048.4 0 0 -1048.4z"/>
   <path class="fil4" d="M16998.49 18970.72c0,0 -1835.88,1046.86 -3382.91,1265.87l0 2232.91c224.78,30.01 449.32,64.85 672.29,104.82 1488.66,-778.36 2330.5,-2113.01 2710.62,-3603.6zm-3955.28 3432.31l0 -2126.99c-13.08,-0.21 -26.26,-0.27 -39.26,-0.63 -245.49,-7.18 -488.66,-37.51 -728.43,-83.85l0 34.97 -1048.41 0 0 -325.82 -39.26 -13.55c-45,-15.62 -89.82,-31.45 -134.43,-47.39l0 386.76 -1048.4 0 0 -774.93 -39.26 -13.87c-312.45,-109.69 -608.23,-198.98 -883.52,-242.02l0 3203.6c662.07,-65.05 1325.18,-91.05 1971.63,-91.31 631.37,-0.24 1306.54,27.2 1989.34,95.03zm-4486.17 56.41l12.14 -3276.26c-1089.45,176.34 -2471.45,1841.99 -2471.45,1841.99 453.59,621.1 1039.38,1151.04 1768.18,1541.78 229.18,-41.44 459.8,-77.13 691.13,-107.51z"/>
   <path class="fil5" d="M3357.05 24984.83c537.36,-139.54 1090.18,-383.98 1671.15,-533.56 3851.75,-991.63 8156.33,-1043.13 12000.01,-19.79 609.88,162.37 1171.17,400.07 1729.5,553.35 -182.03,-339.29 -943.2,-831.36 -1393.01,-1097.23 -1736.31,-1026.23 -4255.65,-1318.29 -6310.83,-1317.5 -2114.42,0.84 -4406.99,276.17 -6258.62,1298.08 -502.63,277.4 -1195.03,750.6 -1438.2,1116.65z"/>
  </g>
 </g>
</svg>
